<?xml version="1.0" standalone="no"?>
<!DOCTYPE svg PUBLIC "-//W3C//DTD SVG 20010904//EN"
 "http://www.w3.org/TR/2001/REC-SVG-20010904/DTD/svg10.dtd">
<svg version="1.0" xmlns="http://www.w3.org/2000/svg"
 width="175.000000pt" height="194.000000pt" viewBox="0 0 175.000000 194.000000"
 preserveAspectRatio="xMidYMid meet">

<g transform="translate(0.000000,194.000000) scale(0.100000,-0.100000)"
fill="#000000" stroke="none">
<path d="M833 1866 l-42 -71 34 -3 c32 -3 35 -6 35 -35 0 -24 -3 -28 -12 -19
-7 7 -23 12 -35 12 -23 0 -24 -2 -21 -77 3 -65 6 -78 21 -81 15 -3 17 5 17 60
1 58 2 61 15 44 12 -16 15 -65 15 -265 0 -134 -2 -242 -4 -240 -2 2 -6 84 -8
182 -1 97 -5 177 -9 177 -3 0 -17 -13 -32 -28 l-27 -28 0 -160 0 -160 -34 -12
c-50 -18 -123 -88 -152 -143 l-24 -49 -161 0 -160 0 -24 -27 c-13 -16 -25 -31
-25 -35 0 -4 82 -9 183 -11 l182 -2 -207 -3 -208 -2 0 30 c0 17 -3 30 -6 30
-12 0 -134 -72 -134 -79 0 -6 123 -81 135 -81 3 0 5 14 5 30 l0 30 208 -2 207
-3 -182 -2 c-101 -2 -183 -7 -183 -11 0 -5 10 -18 23 -30 22 -21 33 -22 185
-22 l162 0 15 -37 c25 -59 80 -118 139 -149 l56 -29 0 -162 0 -162 26 -20 c15
-12 31 -21 35 -21 5 0 8 79 6 175 -1 96 1 175 6 175 4 0 7 -90 7 -200 l0 -200
-36 0 c-20 0 -34 -3 -32 -7 2 -5 21 -38 42 -75 45 -75 39 -77 96 24 l32 58
-36 0 -36 0 0 200 c0 127 4 200 10 200 6 0 10 -65 10 -175 0 -96 4 -175 8
-175 5 0 18 10 30 23 21 22 22 33 22 183 l0 159 54 28 c62 33 93 63 133 132
l29 50 159 2 158 2 29 28 29 28 -188 5 -188 6 208 2 207 2 0 -30 c0 -16 3 -30
6 -30 3 0 37 19 75 42 l70 41 -68 38 c-37 21 -71 39 -75 39 -5 0 -8 -13 -8
-30 l0 -30 -207 2 -208 3 189 2 189 3 -33 35 -34 35 -157 0 -157 0 -22 43
c-30 57 -75 103 -137 139 l-53 30 0 157 0 157 -30 29 -30 29 0 -182 c0 -115
-4 -182 -10 -182 -6 0 -10 79 -10 218 1 188 3 215 15 199 7 -10 22 -17 32 -15
15 3 18 15 21 81 3 72 1 77 -18 77 -18 0 -20 -6 -20 -57 -1 -54 -2 -57 -16
-38 -10 14 -14 38 -12 75 3 54 3 55 36 58 l33 3 -32 57 c-56 100 -49 98 -96
18z m34 -738 c-3 -7 -14 -37 -23 -65 -21 -62 -27 -63 -103 -24 l-54 28 33 23
c58 41 159 67 147 38z m132 -18 c67 -34 68 -43 2 -75 -32 -15 -63 -25 -69 -21
-6 3 -17 25 -25 49 -8 23 -18 51 -23 61 -7 18 -4 19 35 12 24 -3 60 -15 80
-26z m-286 -115 c15 -31 27 -59 27 -64 0 -5 -24 -17 -52 -27 -29 -9 -59 -19
-65 -22 -30 -10 1 109 39 155 17 21 22 16 51 -42z m386 26 c20 -27 53 -131 45
-140 -3 -3 -124 37 -132 44 -6 6 50 125 59 125 4 0 17 -13 28 -29z m-163 -27
c77 -37 100 -144 44 -208 -108 -123 -295 0 -225 148 31 65 112 92 181 60z
m-251 -155 c30 -11 55 -22 55 -24 0 -14 -54 -125 -61 -125 -15 0 -61 90 -66
130 -7 47 -4 48 72 19z m453 -21 c-10 -45 -53 -128 -67 -128 -4 0 -18 26 -32
57 -13 32 -25 61 -27 64 -3 8 95 48 119 48 15 1 16 -5 7 -41z m-289 -151 c11
-32 21 -60 21 -63 0 -18 -118 24 -165 59 -19 15 -17 17 45 45 36 16 68 27 71
23 4 -3 16 -32 28 -64z m184 26 c34 -17 29 -27 -31 -57 -40 -20 -122 -43 -122
-34 0 2 9 28 20 58 12 30 23 60 25 67 4 13 40 1 108 -34z"/>
<path d="M834 976 c-80 -35 -98 -131 -35 -188 25 -22 41 -28 77 -28 39 0 51 5
80 34 26 26 34 42 34 71 0 48 -26 91 -66 110 -39 18 -50 18 -90 1z"/>
</g>
</svg>
